<?xml version="1.0" encoding="utf-8"?>
<svg width="170px" height="56px" viewBox="0 0 170 56" version="1.1" xmlns:xlink="http://www.w3.org/1999/xlink" xmlns="http://www.w3.org/2000/svg">
  <desc>Created with Lunacy</desc>
  <defs>
    <path d="M5.6 0L164.4 0Q164.543 0 164.686 0.0065282Q164.828 0.0130564 164.97 0.0260995Q165.111 0.0391426 165.251 0.0586739Q165.39 0.0782053 165.528 0.104185Q165.666 0.130165 165.802 0.16254Q165.937 0.194915 166.071 0.23362Q166.204 0.272324 166.335 0.317279Q166.466 0.362235 166.593 0.413348Q166.721 0.464462 166.846 0.52163Q166.97 0.578798 167.091 0.641904Q167.213 0.70501 167.33 0.773925Q167.448 0.84284 167.561 0.917424Q167.675 0.992007 167.784 1.07211Q167.894 1.15221 167.999 1.23766Q168.104 1.32311 168.204 1.41374Q168.304 1.50438 168.4 1.6Q168.496 1.69563 168.586 1.79605Q168.677 1.89647 168.762 2.00149Q168.848 2.10651 168.928 2.2159Q169.008 2.3253 169.083 2.43885Q169.157 2.55241 169.226 2.66989Q169.295 2.78736 169.358 2.90853Q169.421 3.02969 169.478 3.15429Q169.536 3.27889 169.587 3.40667Q169.638 3.53446 169.683 3.66517Q169.728 3.79587 169.766 3.92924Q169.805 4.0626 169.837 4.19835Q169.87 4.3341 169.896 4.47195Q169.922 4.60981 169.941 4.74949Q169.961 4.88917 169.974 5.03039Q169.987 5.17161 169.993 5.31409Q170 5.45656 170 5.6L170 50.4Q170 50.5434 169.993 50.6859Q169.987 50.8284 169.974 50.9696Q169.961 51.1108 169.941 51.2505Q169.922 51.3902 169.896 51.5281Q169.87 51.6659 169.837 51.8017Q169.805 51.9374 169.766 52.0708Q169.728 52.2041 169.683 52.3348Q169.638 52.4655 169.587 52.5933Q169.536 52.7211 169.478 52.8457Q169.421 52.9703 169.358 53.0915Q169.295 53.2126 169.226 53.3301Q169.157 53.4476 169.083 53.5611Q169.008 53.6747 168.928 53.7841Q168.848 53.8935 168.762 53.9985Q168.677 54.1035 168.586 54.204Q168.496 54.3044 168.4 54.4Q168.304 54.4956 168.204 54.5863Q168.104 54.6769 167.999 54.7623Q167.894 54.8478 167.784 54.9279Q167.675 55.008 167.561 55.0826Q167.448 55.1572 167.33 55.2261Q167.213 55.295 167.091 55.3581Q166.97 55.4212 166.846 55.4784Q166.721 55.5355 166.593 55.5867Q166.466 55.6378 166.335 55.6827Q166.204 55.7277 166.071 55.7664Q165.937 55.8051 165.802 55.8375Q165.666 55.8698 165.528 55.8958Q165.39 55.9218 165.251 55.9413Q165.111 55.9609 164.97 55.9739Q164.828 55.9869 164.686 55.9935Q164.543 56 164.4 56L5.6 56Q5.45656 56 5.31409 55.9935Q5.17161 55.9869 5.03039 55.9739Q4.88917 55.9609 4.74949 55.9413Q4.60981 55.9218 4.47195 55.8958Q4.3341 55.8698 4.19835 55.8375Q4.0626 55.8051 3.92924 55.7664Q3.79587 55.7277 3.66517 55.6827Q3.53446 55.6378 3.40667 55.5867Q3.27889 55.5355 3.15429 55.4784Q3.02969 55.4212 2.90853 55.3581Q2.78736 55.295 2.66989 55.2261Q2.55241 55.1572 2.43885 55.0826Q2.3253 55.008 2.2159 54.9279Q2.10651 54.8478 2.00149 54.7623Q1.89647 54.6769 1.79605 54.5863Q1.69563 54.4956 1.6 54.4Q1.50438 54.3044 1.41374 54.204Q1.32311 54.1035 1.23766 53.9985Q1.15221 53.8935 1.07211 53.7841Q0.992007 53.6747 0.917424 53.5612Q0.84284 53.4476 0.773925 53.3301Q0.70501 53.2126 0.641904 53.0915Q0.578798 52.9703 0.52163 52.8457Q0.464462 52.7211 0.413348 52.5933Q0.362235 52.4655 0.317279 52.3348Q0.272324 52.2041 0.23362 52.0708Q0.194915 51.9374 0.16254 51.8017Q0.130165 51.6659 0.104185 51.5281Q0.0782053 51.3902 0.0586739 51.2505Q0.0391426 51.1108 0.0260995 50.9696Q0.0130564 50.8284 0.0065282 50.6859Q0 50.5434 0 50.4L0 5.6Q0 5.45656 0.0065282 5.31409Q0.0130564 5.17161 0.0260995 5.03039Q0.0391426 4.88917 0.0586739 4.74949Q0.0782053 4.60981 0.104185 4.47195Q0.130165 4.3341 0.16254 4.19835Q0.194915 4.0626 0.23362 3.92924Q0.272324 3.79587 0.317279 3.66517Q0.362235 3.53446 0.413348 3.40667Q0.464462 3.27889 0.52163 3.15429Q0.578798 3.02969 0.641904 2.90853Q0.70501 2.78736 0.773925 2.66989Q0.84284 2.55241 0.917424 2.43885Q0.992007 2.3253 1.07211 2.2159Q1.15221 2.10651 1.23766 2.00149Q1.32311 1.89647 1.41374 1.79605Q1.50438 1.69563 1.6 1.6Q1.69563 1.50438 1.79605 1.41374Q1.89647 1.32311 2.00149 1.23766Q2.10651 1.15221 2.2159 1.07211Q2.3253 0.992007 2.43885 0.917424Q2.55241 0.84284 2.66989 0.773925Q2.78736 0.70501 2.90853 0.641904Q3.02969 0.578798 3.15429 0.52163Q3.27889 0.464462 3.40667 0.413348Q3.53446 0.362235 3.66517 0.317279Q3.79587 0.272324 3.92924 0.23362Q4.0626 0.194915 4.19835 0.16254Q4.3341 0.130165 4.47195 0.104185Q4.60981 0.0782053 4.74949 0.0586739Q4.88917 0.0391426 5.03039 0.0260995Q5.17161 0.0130564 5.31409 0.0065282Q5.45656 0 5.6 0Z" id="path_1" />
    <clipPath id="mask_1">
      <use xlink:href="#path_1" />
    </clipPath>
  </defs>
  <g id="apple-+-Download-on-the-+-App-Store-Mask-Copy">
    <g id="Mask">
      <g clip-path="url(#mask_1)">
        <use xlink:href="#path_1" fill="none" stroke="#EFB479" stroke-opacity="0.3" stroke-width="2" />
      </g>
    </g>
    <g clip-path="url(#mask_1)">
      <g id="google" transform="translate(14.49801 14)">
        <path d="M26.82 11.4484L13.7534 11.4484L13.7534 17.1756L21.1578 17.1756C19.9756 20.9938 17.0511 22.2665 13.6911 22.2665C10.1154 22.2713 6.96081 19.8743 5.93306 16.3716C4.90531 12.8688 6.24826 9.09155 9.2358 7.082C12.2233 5.07246 16.1465 5.30751 18.8842 7.66008L22.9535 3.69681C18.4467 -0.544194 11.7335 -1.20666 6.51693 2.07481C1.30036 5.35629 -1.14951 11.7828 0.518635 17.8095C2.18678 23.8361 7.5668 27.9957 13.6911 27.9938C21.2393 27.9938 28.0645 22.9029 26.82 11.4484Z" transform="translate(0.6199758 0.006188171)" id="Path" fill="#EFB479" stroke="none" />
      </g>
      <g id="Get-it-on" fill="#EFB479" transform="translate(56 8)">
        <path d="M6.80312 12.0378Q6.39844 12.6175 5.67383 12.9046Q4.94922 13.1917 3.98672 13.1917Q3.01328 13.1917 2.25859 12.7351Q1.50391 12.2785 1.09102 11.4363Q0.678125 10.5941 0.667188 9.48392L0.667188 8.78939Q0.667188 6.99017 1.50664 6.00033Q2.34609 5.01049 3.86641 5.01049Q5.11328 5.01049 5.87344 5.6476Q6.63359 6.28471 6.80312 7.45502L5.75312 7.45502Q5.45781 5.86908 3.87188 5.86908Q2.81641 5.86908 2.27227 6.61074Q1.72812 7.35239 1.72266 8.75906L1.72266 9.41035Q1.72266 10.7513 2.33516 11.5422Q2.94766 12.3331 3.99219 12.3331Q4.58281 12.3331 5.02578 12.2022Q5.46875 12.0712 5.75859 11.7603L5.75859 9.97611L3.91562 9.97611L3.91562 9.11752L6.80312 9.11752L6.80312 12.0378ZM20.7648 5.59564Q20.7648 5.34955 20.9152 5.18002Q21.0656 5.01049 21.3609 5.01049Q21.6563 5.01049 21.8094 5.18002Q21.9625 5.34955 21.9625 5.59564Q21.9625 5.84174 21.8094 6.0058Q21.6563 6.16986 21.3609 6.16986Q21.0656 6.16986 20.9152 6.0058Q20.7648 5.84174 20.7648 5.59564ZM15.7008 7.16517L15.7008 5.73236L14.6891 5.73236L14.6891 7.16517L13.6117 7.16517L13.6117 7.94721L14.6891 7.94721L14.6891 11.6167Q14.6891 12.3714 15.0336 12.7816Q15.3781 13.1917 16.0562 13.1917Q16.4336 13.1917 16.8328 13.083L16.8328 12.2675Q16.5266 12.3331 16.3516 12.3331Q15.9961 12.3331 15.8484 12.1552Q15.7008 11.9772 15.7008 11.6214L15.7008 7.94721L16.8055 7.94721L16.8055 7.16517L15.7008 7.16517ZM24.85 7.16517L24.85 5.73236L23.8383 5.73236L23.8383 7.16517L22.7609 7.16517L22.7609 7.94721L23.8383 7.94721L23.8383 11.6167Q23.8383 12.3714 24.1828 12.7816Q24.5273 13.1917 25.2055 13.1917Q25.5828 13.1917 25.982 13.083L25.982 12.2675Q25.6758 12.3331 25.5008 12.3331Q25.1453 12.3331 24.9977 12.1552Q24.85 11.9772 24.85 11.6214L24.85 7.94721L25.9547 7.94721L25.9547 7.16517L24.85 7.16517ZM10.85 13.1917Q9.64688 13.1917 8.89219 12.4015Q8.1375 11.6113 8.1375 10.2878L8.1375 10.1019Q8.1375 9.22142 8.47383 8.52963Q8.81016 7.83783 9.41445 7.44681Q10.0188 7.0558 10.7242 7.0558Q11.8781 7.0558 12.518 7.81596Q13.1578 8.57611 13.1578 9.99252L13.1578 10.4136L9.14922 10.4136Q9.17109 11.2886 9.66055 11.8273Q10.15 12.366 10.9047 12.366Q11.4406 12.366 11.8125 12.1472Q12.1844 11.9285 12.4633 11.5675L13.0812 12.0488Q12.3375 13.1917 10.85 13.1917ZM29.6406 10.0691Q29.6406 9.19955 29.9824 8.50502Q30.3242 7.81049 30.934 7.43314Q31.5437 7.0558 32.3258 7.0558Q33.5344 7.0558 34.2809 7.89252Q35.0273 8.72924 35.0273 10.1183L35.0273 10.1894Q35.0273 11.0535 34.6965 11.7398Q34.3656 12.4261 33.7504 12.8089Q33.1352 13.1917 32.3367 13.1917Q31.1336 13.1917 30.3871 12.355Q29.6406 11.5183 29.6406 10.1402L29.6406 10.0691ZM37.2859 7.90892L37.2531 7.16517L36.2961 7.16517L36.2961 13.0824L37.3078 13.0824L37.3078 8.86596Q37.5156 8.43939 37.8875 8.17689Q38.2594 7.91439 38.7516 7.91439Q39.3586 7.91439 39.6457 8.22064Q39.9328 8.52689 39.9383 9.16674L39.9383 13.0824L40.95 13.0824L40.95 9.1722Q40.9336 7.0558 39.0578 7.0558Q37.9641 7.0558 37.2859 7.90892ZM21.8586 13.0824L20.8469 13.0824L20.8469 7.16517L21.8586 7.16517L21.8586 13.0824ZM10.7242 7.88705Q10.1117 7.88705 9.69609 8.33275Q9.28047 8.77846 9.18203 9.58236L12.1461 9.58236L12.1461 9.5058Q12.1023 8.73471 11.7305 8.31088Q11.3586 7.88705 10.7242 7.88705ZM30.6578 10.1894Q30.6578 11.1738 31.1145 11.7699Q31.5711 12.366 32.3367 12.366Q33.1078 12.366 33.5617 11.7617Q34.0156 11.1574 34.0156 10.0691Q34.0156 9.09564 33.5535 8.49135Q33.0914 7.88705 32.3258 7.88705Q31.5766 7.88705 31.1172 8.48314Q30.6578 9.07924 30.6578 10.1894Z" />
      </g>
      <g id="Google-Play" fill="#EFB479" transform="translate(56 22)">
        <path d="M48.6343 18.2206L46.3917 18.2206L46.3917 4.04558L48.6343 4.04558L48.6343 18.2206ZM78.1471 18.2206L80.3896 18.2206L80.3896 4.04558L78.1471 4.04558L78.1471 18.2206ZM9.6438 17.916Q10.9358 17.4269 11.6648 16.4764L11.6648 11.3269L6.5707 11.3269L6.5707 13.0988L9.33926 13.0988L9.33926 15.7289Q8.58252 16.541 6.79219 16.541Q5.15874 16.541 4.2405 15.3378Q3.32227 14.1345 3.32227 11.9586L3.32227 10.926Q3.34995 8.74088 4.16667 7.61139Q4.9834 6.48191 6.55225 6.48191Q8.97935 6.48191 9.36694 8.90901L11.6556 8.90901Q11.388 6.82336 10.0683 5.71133Q8.74863 4.59929 6.5061 4.59929Q3.89443 4.59929 2.43633 6.31118Q0.978223 8.02307 0.978223 11.0685L0.978223 12.1205Q1.00591 14.0216 1.71189 15.4474Q2.41787 16.8732 3.71909 17.6392Q5.02031 18.4052 6.70913 18.4052Q8.35181 18.4052 9.6438 17.916ZM68.4756 18.2206L66.1408 18.2206L66.1408 4.78386L71.2811 4.78386Q73.5328 4.78386 74.8571 5.95718Q76.1814 7.1305 76.1814 9.06128Q76.1814 11.0383 74.8848 12.1378Q73.5882 13.2372 71.2534 13.2372L68.4756 13.2372L68.4756 18.2206ZM68.4756 11.3546L71.2811 11.3546Q72.5269 11.3546 73.1821 10.7686Q73.8373 10.1825 73.8373 9.07512Q73.8373 7.98616 73.1729 7.33555Q72.5084 6.68494 71.3456 6.66648L68.4756 6.66648L68.4756 11.3546ZM14.175 10.4917Q13.5936 11.6683 13.5936 13.1357L13.5936 13.2464Q13.5936 15.5905 14.8625 16.9978Q16.1314 18.4052 18.2448 18.4052Q19.6291 18.4052 20.6857 17.7684Q21.7424 17.1316 22.3099 15.9688Q22.8775 14.806 22.8775 13.3295L22.8683 12.8034Q22.7667 10.6532 21.5071 9.35198Q20.2474 8.05076 18.2263 8.05076Q16.8605 8.05076 15.8084 8.68291Q14.7564 9.31506 14.175 10.4917ZM24.3541 13.1357Q24.3541 11.6683 24.9354 10.4917Q25.5168 9.31506 26.5689 8.68291Q27.6209 8.05076 28.9868 8.05076Q31.0078 8.05076 32.2675 9.35198Q33.5272 10.6532 33.6287 12.8034L33.6379 13.3295Q33.6379 14.806 33.0704 15.9688Q32.5028 17.1316 31.4462 17.7684Q30.3895 18.4052 29.0052 18.4052Q26.8919 18.4052 25.623 16.9978Q24.3541 15.5905 24.3541 13.2464L24.3541 13.1357ZM36.2358 9.43965Q35.1422 10.8285 35.1422 13.1541Q35.1422 15.6181 36.2542 17.0116Q37.3663 18.4052 39.1197 18.4052Q40.7347 18.4052 41.7037 17.3254L41.7037 17.9991Q41.7037 19.1711 41.0577 19.7756Q40.4117 20.3801 39.295 20.3801Q37.7815 20.3801 36.7479 19.1527L35.6867 20.5Q36.2312 21.2383 37.2786 21.6951Q38.326 22.1519 39.4242 22.1519Q41.5006 22.1519 42.7234 21.0168Q43.9462 19.8817 43.9462 17.916L43.9462 8.23533L41.9251 8.23533L41.8236 9.24124Q40.8454 8.05076 39.1381 8.05076Q37.3293 8.05076 36.2358 9.43965ZM52.0165 17.0624Q53.3408 18.4052 55.4726 18.4052Q56.7185 18.4052 57.7197 17.9114Q58.721 17.4177 59.3209 16.5225L58.112 15.369Q57.143 16.6148 55.6018 16.6148Q54.5036 16.6148 53.7792 15.895Q53.0547 15.1752 52.9532 13.9385L59.4778 13.9385L59.4778 13.0342Q59.4778 10.6532 58.3657 9.35198Q57.2537 8.05076 55.2142 8.05076Q53.9314 8.05076 52.8886 8.70598Q51.8458 9.36121 51.269 10.5378Q50.6922 11.7145 50.6922 13.2095L50.6922 13.4864Q50.6922 15.7197 52.0165 17.0624ZM88.7968 18.2206Q88.6491 17.9345 88.5384 17.2885Q87.4679 18.4052 85.9175 18.4052Q84.4132 18.4052 83.4627 17.5469Q82.5122 16.6886 82.5122 15.4243Q82.5122 13.8278 83.698 12.9742Q84.8839 12.1205 87.0895 12.1205L88.4645 12.1205L88.4645 11.4653Q88.4645 10.6901 88.0308 10.2241Q87.5971 9.75803 86.7111 9.75803Q85.9452 9.75803 85.456 10.141Q84.9669 10.524 84.9669 11.1146L82.7244 11.1146Q82.7244 10.2933 83.2689 9.57808Q83.8134 8.86287 84.7501 8.45681Q85.6868 8.05076 86.8403 8.05076Q88.5937 8.05076 89.6366 8.93208Q90.6794 9.8134 90.7071 11.4099L90.7071 15.9135Q90.7071 17.2608 91.0854 18.0637L91.0854 18.2206L88.7968 18.2206ZM98.579 8.23533L96.5487 15.0091L94.4354 8.23533L92.0175 8.23533L95.5244 18.1669L95.2014 19.0245Q94.9522 19.7529 94.5231 20.0619Q94.0939 20.3708 93.2449 20.3708L92.8204 20.3431L92.8204 22.0865Q93.411 22.2534 93.9001 22.2534Q96.0873 22.2534 97.0009 19.7341L100.969 8.23533L98.579 8.23533ZM16.4729 15.7427Q15.8361 14.8706 15.8361 13.3295Q15.8361 11.5945 16.4821 10.7224Q17.1281 9.85032 18.2263 9.85032Q19.343 9.85032 19.9936 10.7363Q20.6442 11.6222 20.6442 13.1357Q20.6442 14.8429 20.012 15.7289Q19.3799 16.6148 18.2448 16.6148Q17.1097 16.6148 16.4729 15.7427ZM26.5966 13.3295Q26.5966 14.8706 27.2333 15.7427Q27.8701 16.6148 29.0052 16.6148Q30.1403 16.6148 30.7725 15.7289Q31.4046 14.8429 31.4046 13.1357Q31.4046 11.6222 30.754 10.7363Q30.1034 9.85032 28.9868 9.85032Q27.8886 9.85032 27.2426 10.7224Q26.5966 11.5945 26.5966 13.3295ZM53.7146 10.4963Q54.2821 9.85032 55.205 9.85032Q56.1371 9.85032 56.6631 10.4271Q57.1891 11.0039 57.2629 12.1298L57.2629 12.2959L52.9901 12.2959Q53.147 11.1423 53.7146 10.4963ZM37.9892 15.715Q37.3755 14.8522 37.3755 13.3479Q37.3755 11.6406 37.9892 10.7639Q38.6029 9.88723 39.7103 9.88723Q41.0669 9.88723 41.7037 11.0223L41.7037 15.4151Q41.0484 16.5779 39.6918 16.5779Q38.6029 16.5779 37.9892 15.715ZM86.3328 16.6056Q86.9972 16.6056 87.5832 16.2826Q88.1692 15.9596 88.4645 15.4151L88.4645 13.5325L87.2556 13.5325Q86.0098 13.5325 85.3822 13.9662Q84.7547 14.4 84.7547 15.1936Q84.7547 15.8396 85.1838 16.2226Q85.6129 16.6056 86.3328 16.6056Z" />
      </g>
    </g>
  </g>
</svg>