<?xml version="1.0" encoding="utf-8"?>
<svg width="170px" height="56px" viewBox="0 0 170 56" version="1.1" xmlns:xlink="http://www.w3.org/1999/xlink" xmlns="http://www.w3.org/2000/svg">
  <desc>Created with Lunacy</desc>
  <defs>
    <path d="M5.6 0L164.4 0Q164.543 0 164.686 0.0065282Q164.828 0.0130564 164.97 0.0260995Q165.111 0.0391426 165.251 0.0586739Q165.39 0.0782053 165.528 0.104185Q165.666 0.130165 165.802 0.16254Q165.937 0.194915 166.071 0.23362Q166.204 0.272324 166.335 0.317279Q166.466 0.362235 166.593 0.413348Q166.721 0.464462 166.846 0.52163Q166.97 0.578798 167.091 0.641904Q167.213 0.70501 167.33 0.773925Q167.448 0.84284 167.561 0.917424Q167.675 0.992007 167.784 1.07211Q167.894 1.15221 167.999 1.23766Q168.104 1.32311 168.204 1.41374Q168.304 1.50438 168.4 1.6Q168.496 1.69563 168.586 1.79605Q168.677 1.89647 168.762 2.00149Q168.848 2.10651 168.928 2.2159Q169.008 2.3253 169.083 2.43885Q169.157 2.55241 169.226 2.66989Q169.295 2.78736 169.358 2.90853Q169.421 3.02969 169.478 3.15429Q169.536 3.27889 169.587 3.40667Q169.638 3.53446 169.683 3.66517Q169.728 3.79587 169.766 3.92924Q169.805 4.0626 169.837 4.19835Q169.87 4.3341 169.896 4.47195Q169.922 4.60981 169.941 4.74949Q169.961 4.88917 169.974 5.03039Q169.987 5.17161 169.993 5.31409Q170 5.45656 170 5.6L170 50.4Q170 50.5434 169.993 50.6859Q169.987 50.8284 169.974 50.9696Q169.961 51.1108 169.941 51.2505Q169.922 51.3902 169.896 51.5281Q169.87 51.6659 169.837 51.8017Q169.805 51.9374 169.766 52.0708Q169.728 52.2041 169.683 52.3348Q169.638 52.4655 169.587 52.5933Q169.536 52.7211 169.478 52.8457Q169.421 52.9703 169.358 53.0915Q169.295 53.2126 169.226 53.3301Q169.157 53.4476 169.083 53.5611Q169.008 53.6747 168.928 53.7841Q168.848 53.8935 168.762 53.9985Q168.677 54.1035 168.586 54.204Q168.496 54.3044 168.4 54.4Q168.304 54.4956 168.204 54.5863Q168.104 54.6769 167.999 54.7623Q167.894 54.8478 167.784 54.9279Q167.675 55.008 167.561 55.0826Q167.448 55.1572 167.33 55.2261Q167.213 55.295 167.091 55.3581Q166.97 55.4212 166.846 55.4784Q166.721 55.5355 166.593 55.5867Q166.466 55.6378 166.335 55.6827Q166.204 55.7277 166.071 55.7664Q165.937 55.8051 165.802 55.8375Q165.666 55.8698 165.528 55.8958Q165.39 55.9218 165.251 55.9413Q165.111 55.9609 164.97 55.9739Q164.828 55.9869 164.686 55.9935Q164.543 56 164.4 56L5.6 56Q5.45656 56 5.31409 55.9935Q5.17161 55.9869 5.03039 55.9739Q4.88917 55.9609 4.74949 55.9413Q4.60981 55.9218 4.47195 55.8958Q4.3341 55.8698 4.19835 55.8375Q4.0626 55.8051 3.92924 55.7664Q3.79587 55.7277 3.66517 55.6827Q3.53446 55.6378 3.40667 55.5867Q3.27889 55.5355 3.15429 55.4784Q3.02969 55.4212 2.90853 55.3581Q2.78736 55.295 2.66989 55.2261Q2.55241 55.1572 2.43885 55.0826Q2.3253 55.008 2.2159 54.9279Q2.10651 54.8478 2.00149 54.7623Q1.89647 54.6769 1.79605 54.5863Q1.69563 54.4956 1.6 54.4Q1.50438 54.3044 1.41374 54.204Q1.32311 54.1035 1.23766 53.9985Q1.15221 53.8935 1.07211 53.7841Q0.992007 53.6747 0.917424 53.5612Q0.84284 53.4476 0.773925 53.3301Q0.70501 53.2126 0.641904 53.0915Q0.578798 52.9703 0.52163 52.8457Q0.464462 52.7211 0.413348 52.5933Q0.362235 52.4655 0.317279 52.3348Q0.272324 52.2041 0.23362 52.0708Q0.194915 51.9374 0.16254 51.8017Q0.130165 51.6659 0.104185 51.5281Q0.0782053 51.3902 0.0586739 51.2505Q0.0391426 51.1108 0.0260995 50.9696Q0.0130564 50.8284 0.0065282 50.6859Q0 50.5434 0 50.4L0 5.6Q0 5.45656 0.0065282 5.31409Q0.0130564 5.17161 0.0260995 5.03039Q0.0391426 4.88917 0.0586739 4.74949Q0.0782053 4.60981 0.104185 4.47195Q0.130165 4.3341 0.16254 4.19835Q0.194915 4.0626 0.23362 3.92924Q0.272324 3.79587 0.317279 3.66517Q0.362235 3.53446 0.413348 3.40667Q0.464462 3.27889 0.52163 3.15429Q0.578798 3.02969 0.641904 2.90853Q0.70501 2.78736 0.773925 2.66989Q0.84284 2.55241 0.917424 2.43885Q0.992007 2.3253 1.07211 2.2159Q1.15221 2.10651 1.23766 2.00149Q1.32311 1.89647 1.41374 1.79605Q1.50438 1.69563 1.6 1.6Q1.69563 1.50438 1.79605 1.41374Q1.89647 1.32311 2.00149 1.23766Q2.10651 1.15221 2.2159 1.07211Q2.3253 0.992007 2.43885 0.917424Q2.55241 0.84284 2.66989 0.773925Q2.78736 0.70501 2.90853 0.641904Q3.02969 0.578798 3.15429 0.52163Q3.27889 0.464462 3.40667 0.413348Q3.53446 0.362235 3.66517 0.317279Q3.79587 0.272324 3.92924 0.23362Q4.0626 0.194915 4.19835 0.16254Q4.3341 0.130165 4.47195 0.104185Q4.60981 0.0782053 4.74949 0.0586739Q4.88917 0.0391426 5.03039 0.0260995Q5.17161 0.0130564 5.31409 0.0065282Q5.45656 0 5.6 0Z" id="path_1" />
    <clipPath id="mask_1">
      <use xlink:href="#path_1" />
    </clipPath>
  </defs>
  <g id="apple-+-Download-on-the-+-App-Store-Mask">
    <g id="Mask">
      <g clip-path="url(#mask_1)">
        <use xlink:href="#path_1" fill="none" stroke="#EFB479" stroke-opacity="0.3" stroke-width="2" />
      </g>
    </g>
    <g clip-path="url(#mask_1)">
      <g id="apple" transform="translate(12.5 9.8)">
        <path d="M26.5966 15.4581C25.8693 17.0688 25.5221 17.7877 24.5855 19.2108C23.2807 21.1981 21.4397 23.6733 19.1584 23.6943C17.1319 23.7132 16.6111 22.3755 13.8601 22.3916C11.1091 22.4077 10.5358 23.7181 8.50931 23.6992C6.22801 23.6789 4.48501 21.4438 3.17881 19.4551C-0.472387 13.8971 -0.853887 7.3752 1.39801 3.9081C2.99821 1.4427 5.52381 0.0021 7.89751 0.0021C10.3146 0.0021 11.8343 1.3272 13.8335 1.3272C15.7725 1.3272 16.9534 0 19.7485 0C21.8611 0 24.0997 1.1501 25.695 3.1374C20.4681 6.0011 21.3179 13.4624 26.5966 15.4581L26.5966 15.4581Z" transform="translate(0.5 8.5008)" id="Path" fill="#EFB479" stroke="none" />
        <path d="M4.84434 5.0232C5.86004 3.7198 6.63004 1.8809 6.35004 0C4.69104 0.1134 2.75204 1.169 1.61944 2.5445C0.591141 3.7926 -0.25796 5.6441 0.0724404 7.4438C1.88194 7.5005 3.75584 6.419 4.84434 5.0232L4.84434 5.0232Z" transform="translate(13.57857 3.361755E-13)" id="Path" fill="#EFB479" stroke="none" />
      </g>
      <g id="Download-on-the" fill="#EFB479" transform="translate(56 8)">
        <path d="M29.1812 13.0824L30.193 13.0824L30.193 4.68236L29.1812 4.68236L29.1812 13.0824ZM44.0453 10.0745Q44.0453 8.71283 44.6906 7.88431Q45.3359 7.0558 46.3805 7.0558Q47.4195 7.0558 48.0266 7.76674L48.0266 4.68236L49.0383 4.68236L49.0383 13.0824L48.1086 13.0824L48.0594 12.448Q47.4523 13.1917 46.3695 13.1917Q45.3414 13.1917 44.6934 12.3495Q44.0453 11.5074 44.0453 10.1511L44.0453 10.0745ZM73.3906 7.88158Q74.0633 7.0558 75.1406 7.0558Q77.0164 7.0558 77.0328 9.1722L77.0328 13.0824L76.0211 13.0824L76.0211 9.16674Q76.0156 8.52689 75.7285 8.22064Q75.4414 7.91439 74.8344 7.91439Q74.3422 7.91439 73.9703 8.17689Q73.5984 8.43939 73.3906 8.86596L73.3906 13.0824L72.3789 13.0824L72.3789 4.68236L73.3906 4.68236L73.3906 7.88158ZM0.924219 13.0824L0.924219 5.11986L3.17188 5.11986Q4.21094 5.11986 5.00938 5.57924Q5.80781 6.03861 6.24258 6.88627Q6.67734 7.73392 6.68281 8.83314L6.68281 9.34174Q6.68281 10.4683 6.24805 11.316Q5.81328 12.1636 5.00664 12.6175Q4.2 13.0714 3.12812 13.0824L0.924219 13.0824ZM70.093 7.16517L70.093 5.73236L69.0813 5.73236L69.0813 7.16517L68.0039 7.16517L68.0039 7.94721L69.0813 7.94721L69.0813 11.6167Q69.0813 12.3714 69.4258 12.7816Q69.7703 13.1917 70.4484 13.1917Q70.8258 13.1917 71.225 13.083L71.225 12.2675Q70.9188 12.3331 70.7438 12.3331Q70.3883 12.3331 70.2406 12.1552Q70.093 11.9772 70.093 11.6214L70.093 7.94721L71.1977 7.94721L71.1977 7.16517L70.093 7.16517ZM1.97422 5.97846L1.97422 12.2238L3.07891 12.2238Q4.29297 12.2238 4.96836 11.4684Q5.64375 10.7131 5.64375 9.3173L5.64375 8.85203Q5.64375 7.49467 5.00664 6.74203Q4.36953 5.98939 3.19922 5.97846L1.97422 5.97846ZM7.84219 10.0691Q7.84219 9.19955 8.18398 8.50502Q8.52578 7.81049 9.13555 7.43314Q9.74531 7.0558 10.5273 7.0558Q11.7359 7.0558 12.4824 7.89252Q13.2289 8.72924 13.2289 10.1183L13.2289 10.1894Q13.2289 11.0535 12.898 11.7398Q12.5672 12.4261 11.952 12.8089Q11.3367 13.1917 10.5383 13.1917Q9.33516 13.1917 8.58867 12.355Q7.84219 11.5183 7.84219 10.1402L7.84219 10.0691ZM23.8711 7.16517L23.9039 7.90892Q24.582 7.0558 25.6758 7.0558Q27.5516 7.0558 27.568 9.1722L27.568 13.0824L26.5562 13.0824L26.5562 9.16674Q26.5508 8.52689 26.2637 8.22064Q25.9766 7.91439 25.3695 7.91439Q24.8773 7.91439 24.5055 8.17689Q24.1336 8.43939 23.9258 8.86596L23.9258 13.0824L22.9141 13.0824L22.9141 7.16517L23.8711 7.16517ZM31.5437 10.0691Q31.5437 9.19955 31.8855 8.50502Q32.2273 7.81049 32.8371 7.43314Q33.4469 7.0558 34.2289 7.0558Q35.4375 7.0558 36.184 7.89252Q36.9305 8.72924 36.9305 10.1183L36.9305 10.1894Q36.9305 11.0535 36.5996 11.7398Q36.2687 12.4261 35.6535 12.8089Q35.0383 13.1917 34.2398 13.1917Q33.0367 13.1917 32.2902 12.355Q31.5437 11.5183 31.5437 10.1402L31.5437 10.0691ZM41.7102 12.4589Q41.7648 12.9074 41.8523 13.0824L42.9133 13.0824L42.9133 12.9949Q42.7055 12.5136 42.7055 11.6988L42.7055 8.97533Q42.6836 8.07845 42.1039 7.56713Q41.5242 7.0558 40.5016 7.0558Q39.8563 7.0558 39.3176 7.29642Q38.7789 7.53705 38.4645 7.94994Q38.15 8.36283 38.15 8.8058L39.1672 8.8058Q39.1672 8.41752 39.5336 8.14408Q39.9 7.87064 40.4414 7.87064Q41.0594 7.87064 41.3766 8.1851Q41.6937 8.49955 41.6937 9.03002L41.6937 9.49486L40.7094 9.49486Q39.4352 9.49486 38.7324 10.0062Q38.0297 10.5175 38.0297 11.4417Q38.0297 12.2019 38.5902 12.6968Q39.1508 13.1917 40.0258 13.1917Q41.0047 13.1917 41.7102 12.4589ZM53.4543 8.50502Q53.1125 9.19955 53.1125 10.0691L53.1125 10.1402Q53.1125 11.5183 53.859 12.355Q54.6055 13.1917 55.8086 13.1917Q56.607 13.1917 57.2223 12.8089Q57.8375 12.4261 58.1684 11.7398Q58.4992 11.0535 58.4992 10.1894L58.4992 10.1183Q58.4992 8.72924 57.7527 7.89252Q57.0062 7.0558 55.7977 7.0558Q55.0156 7.0558 54.4059 7.43314Q53.7961 7.81049 53.4543 8.50502ZM60.725 7.16517L60.7578 7.90892Q61.4359 7.0558 62.5297 7.0558Q64.4055 7.0558 64.4219 9.1722L64.4219 13.0824L63.4102 13.0824L63.4102 9.16674Q63.4047 8.52689 63.1176 8.22064Q62.8305 7.91439 62.2234 7.91439Q61.7312 7.91439 61.3594 8.17689Q60.9875 8.43939 60.7797 8.86596L60.7797 13.0824L59.768 13.0824L59.768 7.16517L60.725 7.16517ZM79.0453 12.4015Q79.8 13.1917 81.0031 13.1917Q82.4906 13.1917 83.2344 12.0488L82.6164 11.5675Q82.3375 11.9285 81.9656 12.1472Q81.5938 12.366 81.0578 12.366Q80.3031 12.366 79.8137 11.8273Q79.3242 11.2886 79.3023 10.4136L83.3109 10.4136L83.3109 9.99252Q83.3109 8.57611 82.6711 7.81596Q82.0313 7.0558 80.8773 7.0558Q80.1719 7.0558 79.5676 7.44681Q78.9633 7.83783 78.627 8.52963Q78.2906 9.22142 78.2906 10.1019L78.2906 10.2878Q78.2906 11.6113 79.0453 12.4015ZM20.8742 7.16517L19.7367 11.6878L18.3312 7.16517L17.5164 7.16517L16.1383 11.5949L14.9734 7.16517L13.9672 7.16517L15.6844 13.0824L16.5047 13.0824L17.9047 8.59799L19.343 13.0824L20.1633 13.0824L21.8859 7.16517L20.8742 7.16517ZM8.85938 10.1894Q8.85938 11.1738 9.31602 11.7699Q9.77266 12.366 10.5383 12.366Q11.3094 12.366 11.7633 11.7617Q12.2172 11.1574 12.2172 10.0691Q12.2172 9.09564 11.7551 8.49135Q11.293 7.88705 10.5273 7.88705Q9.77812 7.88705 9.31875 8.48314Q8.85938 9.07924 8.85938 10.1894ZM32.5609 10.1894Q32.5609 11.1738 33.0176 11.7699Q33.4742 12.366 34.2398 12.366Q35.0109 12.366 35.4648 11.7617Q35.9187 11.1574 35.9188 10.0691Q35.9187 9.09564 35.4566 8.49135Q34.9945 7.88705 34.2289 7.88705Q33.4797 7.88705 33.0203 8.48314Q32.5609 9.07924 32.5609 10.1894ZM54.5863 11.7699Q54.1297 11.1738 54.1297 10.1894Q54.1297 9.07924 54.5891 8.48314Q55.0484 7.88705 55.7977 7.88705Q56.5633 7.88705 57.0254 8.49135Q57.4875 9.09564 57.4875 10.0691Q57.4875 11.1574 57.0336 11.7617Q56.5797 12.366 55.8086 12.366Q55.043 12.366 54.5863 11.7699ZM79.8492 8.33275Q80.2648 7.88705 80.8773 7.88705Q81.5117 7.88705 81.8836 8.31088Q82.2555 8.73471 82.2992 9.5058L82.2992 9.58236L79.3352 9.58236Q79.4336 8.77846 79.8492 8.33275ZM45.057 10.1894Q45.057 11.1956 45.4727 11.7644Q45.8883 12.3331 46.6211 12.3331Q47.5836 12.3331 48.0266 11.4691L48.0266 8.75111Q47.5727 7.91439 46.632 7.91439Q45.8883 7.91439 45.4727 8.48861Q45.057 9.06283 45.057 10.1894ZM41.0758 12.0652Q40.6492 12.3113 40.1734 12.3113Q39.6758 12.3113 39.3586 12.0433Q39.0414 11.7753 39.0414 11.2995Q39.0414 10.2113 40.9008 10.2113L41.6937 10.2113L41.6937 11.4253Q41.5023 11.8191 41.0758 12.0652Z" />
      </g>
      <g id="App-Store" fill="#EFB479" transform="translate(56 22)">
        <path d="M46.3318 13.3941Q46.9547 13.874 46.9547 14.7599Q46.9547 15.572 46.341 16.0657Q45.7273 16.5594 44.5091 16.5594Q43.0972 16.5594 42.3404 15.9319Q41.5837 15.3044 41.5837 14.16L39.2489 14.16Q39.2489 15.4243 39.9272 16.3749Q40.6055 17.3254 41.8282 17.8653Q43.051 18.4052 44.5091 18.4052Q46.7147 18.4052 48.0021 17.4131Q49.2895 16.421 49.2895 14.7414Q49.2895 13.7078 48.8465 12.9373Q48.4036 12.1667 47.453 11.5714Q46.5025 10.9762 44.9336 10.5102Q43.3648 10.0441 42.6819 9.55039Q41.999 9.05667 41.999 8.31838Q41.999 7.44168 42.6311 6.95256Q43.2633 6.46345 44.4076 6.46345Q45.635 6.46345 46.2948 7.05869Q46.9547 7.65393 46.9547 8.70598L49.2803 8.70598Q49.2803 7.54319 48.6527 6.58804Q48.0252 5.63289 46.927 5.11609Q45.8288 4.59929 44.4261 4.59929Q42.3127 4.59929 40.9884 5.65134Q39.6642 6.70339 39.6642 8.32761Q39.6642 10.1825 41.5006 11.3361Q42.4604 11.936 44.0846 12.4251Q45.7088 12.9142 46.3318 13.3941ZM2.59321 18.2206L3.68218 15.0921L8.88706 15.0921L9.98525 18.2206L12.4216 18.2206L7.33667 4.78386L5.2418 4.78386L0.166113 18.2206L2.59321 18.2206ZM53.9314 5.80823L53.9314 8.23533L55.6941 8.23533L55.6941 9.89646L53.9314 9.89646L53.9314 15.4705Q53.9314 16.0427 54.1575 16.2964Q54.3836 16.5502 54.965 16.5502Q55.3526 16.5502 55.7495 16.4579L55.7495 18.1929Q54.9835 18.4052 54.2729 18.4052Q51.6889 18.4052 51.6889 15.5535L51.6889 9.89646L50.0462 9.89646L50.0462 8.23533L51.6889 8.23533L51.6889 5.80823L53.9314 5.80823ZM6.28462 7.63547L8.23184 13.2095L4.3374 13.2095L6.28462 7.63547ZM21.4194 17.0255Q22.4714 15.6458 22.4714 13.3295L22.4714 13.191Q22.4714 10.7732 21.4332 9.41196Q20.395 8.05076 18.5678 8.05076Q16.8697 8.05076 15.8823 9.25046L15.79 8.23533L13.7228 8.23533L13.7228 22.0596L15.9653 22.0596L15.9653 17.3254Q16.9528 18.4052 18.5955 18.4052Q20.3673 18.4052 21.4194 17.0255ZM33.1119 13.3295Q33.1119 15.6458 32.0599 17.0255Q31.0078 18.4052 29.2359 18.4052Q27.5933 18.4052 26.6058 17.3254L26.6058 22.0596L24.3633 22.0596L24.3633 8.23533L26.4305 8.23533L26.5228 9.25046Q27.5102 8.05076 29.2083 8.05076Q31.0355 8.05076 32.0737 9.41196Q33.1119 10.7732 33.1119 13.191L33.1119 13.3295ZM57.5675 10.4917Q56.9861 11.6683 56.9861 13.1357L56.9861 13.2464Q56.9861 15.5905 58.255 16.9978Q59.5239 18.4052 61.6373 18.4052Q63.0215 18.4052 64.0782 17.7684Q65.1349 17.1316 65.7024 15.9688Q66.27 14.806 66.27 13.3295L66.2607 12.8034Q66.1592 10.6532 64.8995 9.35198Q63.6398 8.05076 61.6188 8.05076Q60.253 8.05076 59.2009 8.68291Q58.1489 9.31506 57.5675 10.4917ZM73.3944 10.2841Q72.9514 10.2102 72.4808 10.2102Q70.9396 10.2102 70.4043 11.3915L70.4043 18.2206L68.1618 18.2206L68.1618 8.23533L70.3028 8.23533L70.3582 9.35198Q71.1703 8.05076 72.61 8.05076Q73.0898 8.05076 73.4036 8.17996L73.3944 10.2841ZM75.7523 17.0624Q77.0766 18.4052 79.2084 18.4052Q80.4542 18.4052 81.4555 17.9114Q82.4568 17.4177 83.0566 16.5225L81.8477 15.369Q80.8787 16.6148 79.3375 16.6148Q78.2394 16.6148 77.5149 15.895Q76.7905 15.1752 76.689 13.9385L83.2135 13.9385L83.2135 13.0342Q83.2135 10.6532 82.1015 9.35198Q80.9894 8.05076 78.95 8.05076Q77.6672 8.05076 76.6244 8.70598Q75.5815 9.36121 75.0048 10.5378Q74.428 11.7145 74.428 13.2095L74.428 13.4864Q74.428 15.7197 75.7523 17.0624ZM59.8654 15.7427Q59.2286 14.8706 59.2286 13.3295Q59.2286 11.5945 59.8746 10.7224Q60.5206 9.85032 61.6188 9.85032Q62.7354 9.85032 63.3861 10.7363Q64.0367 11.6222 64.0367 13.1357Q64.0367 14.8429 63.4045 15.7289Q62.7724 16.6148 61.6373 16.6148Q60.5021 16.6148 59.8654 15.7427ZM77.4503 10.4963Q78.0179 9.85032 78.9407 9.85032Q79.8728 9.85032 80.3988 10.4271Q80.9249 11.0039 80.9987 12.1298L80.9987 12.2959L76.7259 12.2959Q76.8828 11.1423 77.4503 10.4963ZM19.6429 10.7639Q20.2381 11.6406 20.2381 13.1357Q20.2381 14.8891 19.6337 15.752Q19.0292 16.6148 17.9587 16.6148Q16.5744 16.6148 15.9653 15.452L15.9653 11.0223Q16.5652 9.88723 17.9402 9.88723Q19.0477 9.88723 19.6429 10.7639ZM30.8786 13.1357Q30.8786 11.6406 30.2834 10.7639Q29.6881 9.88723 28.5807 9.88723Q27.2057 9.88723 26.6058 11.0223L26.6058 15.452Q27.2149 16.6148 28.5992 16.6148Q29.6697 16.6148 30.2741 15.752Q30.8786 14.8891 30.8786 13.1357Z" />
      </g>
    </g>
  </g>
</svg>