<?xml version="1.0" encoding="UTF-8"?>
<svg width="20px" height="20px" viewBox="0 0 20 20" version="1.1" xmlns="http://www.w3.org/2000/svg" xmlns:xlink="http://www.w3.org/1999/xlink">
    <!-- Generator: Sketch 55.1 (78136) - https://sketchapp.com -->
    <title>file-download-94</title>
    <desc>Created with Sketch.</desc>
    <g id="Web" stroke="none" stroke-width="1" fill="none" fill-rule="evenodd">
        <g id="Apple-TV-Copy-3" transform="translate(-899.000000, -35.000000)" fill="#EFB479" fill-rule="nonzero">
            <g id="Group-3" transform="translate(899.000000, 35.000000)">
                <g id="file-download-94">
                    <path d="M19.9575,12.2366667 L17.4575,4.73666667 C17.3433333,4.39583333 17.0258333,4.16666667 16.6666667,4.16666667 L15,4.16666667 L15,5.83333333 L16.0658333,5.83333333 L18.01,11.6666667 L1.98916667,11.6666667 L3.93333333,5.83333333 L5,5.83333333 L5,4.16666667 L3.33333333,4.16666667 C2.97416667,4.16666667 2.65666667,4.39583333 2.5425,4.73666667 L0.0425,12.2366667 C0.0141666667,12.3216667 0,12.4108333 0,12.5 L0,19.1666667 C0,19.6275 0.373333333,20 0.833333333,20 L19.1666667,20 C19.6266667,20 20,19.6275 20,19.1666667 L20,12.5 C20,12.4108333 19.9858333,12.3216667 19.9575,12.2366667 Z M16.6666667,16.6666667 L11.6666667,16.6666667 L11.6666667,15 L16.6666667,15 L16.6666667,16.6666667 Z" id="Shape"></path>
                    <polygon id="Path" points="10.8333333 0 10.8333333 5 13.3333333 5 10 9.16666667 6.66666667 5 9.16666667 5 9.16666667 0"></polygon>
                </g>
            </g>
        </g>
    </g>
</svg>