<?xml version="1.0" encoding="UTF-8"?>
<svg width="20px" height="20px" viewBox="0 0 20 20" version="1.1" xmlns="http://www.w3.org/2000/svg" xmlns:xlink="http://www.w3.org/1999/xlink">
    <!-- Generator: Sketch 55.1 (78136) - https://sketchapp.com -->
    <title>logo-instagram</title>
    <desc>Created with Sketch.</desc>
    <g id="Web" stroke="none" stroke-width="1" fill="none" fill-rule="evenodd">
        <g id="Apple-TV-Copy-3" transform="translate(-947.000000, -1030.000000)" fill-rule="nonzero">
            <g id="logo-instagram" transform="translate(947.000000, 1030.000000)">
                <path d="M10,0.890740741 C12.9666667,0.890740741 13.3185185,0.901851852 14.4898148,0.955555556 C15.7546296,1.01296296 16.9277778,1.26666667 17.8305556,2.16944444 C18.7333333,3.07222222 18.987037,4.24537037 19.0444444,5.51018519 C19.0981481,6.68148148 19.1092593,7.03333333 19.1092593,10 C19.1092593,12.9666667 19.0981481,13.3185185 19.0444444,14.4898148 C18.987037,15.7546296 18.7333333,16.9277778 17.8305556,17.8305556 C16.9277778,18.7333333 15.7546296,18.987037 14.4898148,19.0444444 C13.3185185,19.0981481 12.9666667,19.1092593 10,19.1092593 C7.03333333,19.1092593 6.68148148,19.0981481 5.51018519,19.0444444 C4.24537037,18.987037 3.07222222,18.7333333 2.16944444,17.8305556 C1.26666667,16.9277778 1.01296296,15.7546296 0.955555556,14.4898148 C0.901851852,13.3185185 0.890740741,12.9666667 0.890740741,10 C0.890740741,7.03333333 0.901851852,6.68148148 0.955555556,5.51018519 C1.01296296,4.24537037 1.26666667,3.07222222 2.16944444,2.16944444 C3.07222222,1.26666667 4.24537037,1.01296296 5.51018519,0.955555556 C6.68148148,0.901851852 7.03333333,0.890740741 10,0.890740741 L10,0.890740741 Z" id="Shape" fill="#EFB479"></path>
                <path d="M10,4.29444444 C6.84907407,4.29444444 4.29444444,6.84907407 4.29444444,10 C4.29444444,13.1509259 6.84907407,15.7055556 10,15.7055556 C13.1509259,15.7055556 15.7055556,13.1509259 15.7055556,10 C15.7055556,6.84907407 13.1509259,4.29444444 10,4.29444444 Z M10,13.7037037 C7.95462963,13.7037037 6.2962963,12.0453704 6.2962963,10 C6.2962963,7.95462963 7.95462963,6.2962963 10,6.2962963 C12.0453704,6.2962963 13.7037037,7.95462963 13.7037037,10 C13.7037037,12.0453704 12.0453704,13.7037037 10,13.7037037 Z" id="Shape" fill="#1A1B1D"></path>
                <circle id="Oval" fill="#1A1B1D" cx="15.9314815" cy="4.06851852" r="1.33333333"></circle>
            </g>
        </g>
    </g>
</svg>