<?xml version="1.0" encoding="UTF-8"?>
<svg width="20px" height="16px" viewBox="0 0 20 16" version="1.1" xmlns="http://www.w3.org/2000/svg" xmlns:xlink="http://www.w3.org/1999/xlink">
    <!-- Generator: Sketch 55.1 (78136) - https://sketchapp.com -->
    <title>logo-twitter</title>
    <desc>Created with Sketch.</desc>
    <g id="Web" stroke="none" stroke-width="1" fill="none" fill-rule="evenodd">
        <g id="Apple-TV-Copy-3" transform="translate(-1007.000000, -1032.000000)" fill="#EFB479" fill-rule="nonzero">
            <g id="logo-twitter" transform="translate(1007.000000, 1032.000000)">
                <path d="M20,2.08 C19.25,2.4 18.5,2.64 17.6666667,2.72 C18.5,2.24 19.1666667,1.44 19.5,0.56 C18.6666667,1.04 17.8333333,1.36 16.9166667,1.52 C16.1666667,0.72 15.0833333,0.24 13.9166667,0.24 C11.6666667,0.24 9.83333333,2 9.83333333,4.16 C9.83333333,4.48 9.83333333,4.8 9.91666667,5.04 C6.41666667,4.88 3.41666667,3.28 1.41666667,0.88 C1,1.52 0.833333333,2.16 0.833333333,2.88 C0.833333333,4.24 1.58333333,5.44 2.66666667,6.16 C2,6.16 1.33333333,6 0.833333333,5.68 C0.833333333,5.68 0.833333333,5.68 0.833333333,5.76 C0.833333333,7.68 2.25,9.28 4.08333333,9.6 C3.75,9.68 3.41666667,9.76 3,9.76 C2.75,9.76 2.5,9.76 2.25,9.68 C2.75,11.28 4.25,12.4 6.08333333,12.4 C4.66666667,13.44 2.91666667,14.08 1,14.08 C0.666666667,14.08 0.333333333,14.08 1.77635684e-15,14 C1.83333333,15.12 4,15.76 6.25,15.76 C13.8333333,15.76 17.9166667,9.76 17.9166667,4.56 C17.9166667,4.4 17.9166667,4.24 17.9166667,4.08 C18.75,3.52 19.4166667,2.8 20,2.08 Z" id="Path"></path>
            </g>
        </g>
    </g>
</svg>