<svg id="Layer_1" data-name="Layer 1" xmlns="http://www.w3.org/2000/svg" viewBox="0 0 180.5 127.7">
  <title>youtube</title>
  <g>
    <path d="M181.2,44.1c-.1-2.2-.2-4.3-.4-6.4-.6-9.1-1.7-19.4-7.6-26.7s-13.1-7.6-20.6-8.4C143.1,1.5,133.5.8,123.9.5,104.5-.3,85.1.2,65.7.6,55.7.8,45.8,1,35.8,1.8c-12.2,1-24.7,2.8-30.4,15S.9,41.6.8,53.4s-.1,21.1.4,31.7c.5,13.7,1.3,31.5,16.1,37.5,7.9,3.2,17.4,4,25.9,4.5s17.9.5,26.8.7c18.8.2,37.5-.4,56.3-.8,13-.2,26.4-.4,38.9-4.6,10.7-3.7,13.5-15.4,15-25.5s1.1-20.2,1.1-30.4C181.3,59,181.4,51.6,181.2,44.1Z" transform="translate(-0.8 -0.1)" fill="#efb479"/>
    <path d="M119.5,63.8,72.8,36.3V91.2Z" transform="translate(-0.8 -0.1)" fill="#fff"/>
  </g>
</svg>
